<?xml version="1.0" encoding="UTF-8"?>
<svg xmlns="http://www.w3.org/2000/svg" xmlns:xlink="http://www.w3.org/1999/xlink" width="30px" height="30px" viewBox="0 0 30 30" version="1.1">
<g id="surface1">
<path style=" stroke:none;fill-rule:nonzero;fill:rgb(99.607843%,100%,100%);fill-opacity:1;" d="M 15 2.167969 C 10.792969 2.167969 7.421875 4.273438 4.96875 6.785156 C 2.53125 9.269531 0.902344 12.25 0.128906 14.296875 C -0.0429688 14.746094 -0.0429688 15.253906 0.128906 15.703125 C 0.902344 17.75 2.53125 20.730469 4.96875 23.214844 C 7.421875 25.726562 10.792969 27.832031 15 27.832031 C 19.207031 27.832031 22.578125 25.726562 25.03125 23.214844 C 27.46875 20.722656 29.097656 17.75 29.875 15.703125 C 30.046875 15.253906 30.046875 14.746094 29.875 14.296875 C 29.097656 12.25 27.46875 9.269531 25.03125 6.785156 C 22.578125 4.273438 19.207031 2.167969 15 2.167969 Z M 7.5 15 C 7.5 10.445312 10.859375 6.75 15 6.75 C 19.140625 6.75 22.5 10.445312 22.5 15 C 22.5 19.554688 19.140625 23.25 15 23.25 C 10.859375 23.25 7.5 19.554688 7.5 15 Z M 15 11.332031 C 15 13.355469 13.503906 15 11.667969 15 C 11.296875 15 10.941406 14.929688 10.609375 14.8125 C 10.324219 14.707031 9.988281 14.902344 10 15.234375 C 10.015625 15.628906 10.066406 16.027344 10.167969 16.421875 C 10.878906 19.355469 13.625 21.097656 16.292969 20.3125 C 18.957031 19.527344 20.542969 16.507812 19.828125 13.574219 C 19.25 11.195312 17.339844 9.597656 15.214844 9.5 C 14.910156 9.488281 14.734375 9.847656 14.828125 10.171875 C 14.9375 10.535156 15 10.925781 15 11.332031 Z M 15 11.332031 "/>
</g>
</svg>
