<?xml version="1.0" encoding="UTF-8"?>
<svg xmlns="http://www.w3.org/2000/svg" xmlns:xlink="http://www.w3.org/1999/xlink" width="60px" height="55px" viewBox="0 0 60 55" version="1.1">
<g id="surface1">
<path style=" stroke:none;fill-rule:nonzero;fill:rgb(99.607843%,100%,100%);fill-opacity:1;" d="M 30 3.972656 C 21.582031 3.972656 14.84375 7.835938 9.9375 12.4375 C 5.0625 16.996094 1.800781 22.457031 0.261719 26.207031 C -0.0820312 27.039062 -0.0820312 27.960938 0.261719 28.792969 C 1.800781 32.542969 5.0625 38.003906 9.9375 42.5625 C 14.84375 47.164062 21.582031 51.027344 30 51.027344 C 38.417969 51.027344 45.15625 47.164062 50.0625 42.5625 C 54.9375 37.992188 58.199219 32.542969 59.75 28.792969 C 60.09375 27.960938 60.09375 27.039062 59.75 26.207031 C 58.199219 22.457031 54.9375 16.996094 50.0625 12.4375 C 45.15625 7.835938 38.417969 3.972656 30 3.972656 Z M 15 27.5 C 15 19.148438 21.714844 12.375 30 12.375 C 38.285156 12.375 45 19.148438 45 27.5 C 45 35.851562 38.285156 42.625 30 42.625 C 21.714844 42.625 15 35.851562 15 27.5 Z M 30 20.777344 C 30 24.484375 27.011719 27.5 23.332031 27.5 C 22.59375 27.5 21.886719 27.375 21.21875 27.152344 C 20.644531 26.964844 19.980469 27.320312 20 27.929688 C 20.03125 28.65625 20.136719 29.378906 20.332031 30.105469 C 21.761719 35.484375 27.25 38.675781 32.582031 37.238281 C 37.917969 35.796875 41.082031 30.261719 39.65625 24.882812 C 38.5 20.527344 34.675781 17.59375 30.425781 17.417969 C 29.824219 17.394531 29.46875 18.058594 29.65625 18.644531 C 29.875 19.316406 30 20.03125 30 20.777344 Z M 30 20.777344 "/>
</g>
</svg>
